<svg xmlns="http://www.w3.org/2000/svg" xmlns:xlink="http://www.w3.org/1999/xlink" width="56" zoomAndPan="magnify" viewBox="0 0 42 42" height="56" preserveAspectRatio="xMidYMid meet" version="1.0"><defs><clipPath id="13f4e13f5a"><path d="M 4.15625 0.515625 L 37.851562 0.515625 L 37.851562 40.808594 L 4.15625 40.808594 Z M 4.15625 0.515625 " clip-rule="nonzero"/></clipPath><clipPath id="cb67ee5583"><path d="M 29 13 L 37.851562 13 L 37.851562 22 L 29 22 Z M 29 13 " clip-rule="nonzero"/></clipPath></defs><g clip-path="url(#13f4e13f5a)"><path fill="#000020" d="M 14.574219 7.410156 C 15.128906 7.585938 15.84375 8.066406 16.378906 8.359375 C 16.867188 8.628906 16.886719 8.558594 17.0625 9.082031 C 17.171875 9.410156 17.273438 9.753906 17.375 10.074219 C 17.816406 11.433594 18.28125 12.824219 18.726562 14.171875 C 19.335938 16.050781 26.574219 38.007812 26.722656 38.800781 C 26.308594 38.648438 25.757812 38.246094 25.351562 37.996094 C 24.601562 37.527344 24.683594 37.726562 24.328125 36.84375 L 20.566406 27.78125 C 19.957031 26.277344 15.964844 16.414062 15.496094 15.820312 C 15.183594 15.578125 14.53125 16.53125 14.183594 17.015625 C 13.171875 18.414062 7.082031 26.535156 6.859375 27.078125 C 6.460938 26.980469 5.46875 26.414062 5.195312 26.152344 L 14.582031 7.410156 Z M 15.4375 6.769531 C 16.054688 6.246094 22.160156 2.824219 23.441406 2.058594 C 24.070312 1.679688 24.175781 1.445312 24.875 1.871094 C 25.261719 2.109375 25.820312 2.441406 26.207031 2.589844 C 25.851562 3.082031 18.878906 6.972656 18.148438 7.394531 C 17.417969 7.816406 17.5 8.042969 16.738281 7.566406 C 16.320312 7.304688 15.78125 7.074219 15.445312 6.769531 Z M 4.207031 26.628906 C 4.664062 26.925781 5.203125 27.21875 5.753906 27.550781 C 7.226562 28.445312 6.511719 28.355469 10.699219 25.933594 L 17.195312 22.136719 C 17.527344 22.46875 22.621094 34.992188 23.535156 37.203125 C 24.085938 38.539062 24.238281 38.328125 25.324219 39 C 28.117188 40.738281 26.988281 40.808594 30.199219 38.921875 C 31.347656 38.246094 37.71875 34.660156 37.832031 34.328125 C 37.839844 33.769531 34.785156 24.519531 34.507812 24.105469 C 33.632812 23.976562 33.054688 24.144531 32.089844 23.894531 C 27.589844 22.738281 25.558594 16.953125 29.527344 13.1875 C 30.742188 12.03125 30.914062 12.816406 30.21875 10.648438 L 27.558594 2.53125 C 27.398438 2.238281 24.613281 0.515625 24.0625 0.683594 C 23.789062 0.765625 22.671875 1.484375 22.328125 1.679688 C 20.066406 2.992188 17.824219 4.28125 15.546875 5.632812 C 13.628906 6.761719 14.253906 6.175781 13.085938 8.488281 L 5.894531 22.820312 C 5.507812 23.585938 4.15625 25.84375 4.214844 26.617188 Z M 4.207031 26.628906 " fill-opacity="1" fill-rule="evenodd"/></g><path fill="#ffffff" d="M 5.195312 26.152344 C 5.46875 26.417969 6.460938 26.988281 6.859375 27.078125 C 7.082031 26.535156 13.171875 18.421875 14.183594 17.015625 C 14.53125 16.53125 15.203125 15.570312 15.496094 15.820312 C 15.964844 16.414062 19.949219 26.277344 20.566406 27.78125 L 24.328125 36.84375 C 24.675781 37.726562 24.59375 37.535156 25.351562 37.996094 C 25.75 38.246094 26.300781 38.648438 26.722656 38.800781 C 26.574219 38.007812 19.339844 16.050781 18.726562 14.171875 C 18.289062 12.824219 17.824219 11.433594 17.375 10.074219 C 17.273438 9.753906 17.171875 9.410156 17.0625 9.082031 C 16.886719 8.558594 16.867188 8.628906 16.378906 8.359375 C 15.84375 8.066406 15.128906 7.585938 14.574219 7.410156 L 5.191406 26.152344 Z M 5.195312 26.152344 " fill-opacity="1" fill-rule="evenodd"/><g clip-path="url(#cb67ee5583)"><path fill="#000020" d="M 32.835938 14.835938 C 34.246094 14.445312 36.402344 15.445312 36.023438 16.683594 C 35.160156 19.527344 31.917969 20.332031 31.277344 19.925781 C 30.433594 19.386719 29.457031 15.769531 32.835938 14.828125 Z M 32.972656 13.902344 C 27.703125 14.714844 29.054688 22.761719 34.222656 21.855469 C 36.167969 21.507812 37.851562 19.644531 37.476562 17.265625 C 37.171875 15.316406 35.300781 13.542969 32.972656 13.902344 Z M 32.972656 13.902344 " fill-opacity="1" fill-rule="evenodd"/></g><path fill="#ffffff" d="M 32.835938 14.835938 C 29.457031 15.777344 30.433594 19.386719 31.277344 19.929688 C 31.917969 20.339844 35.167969 19.527344 36.023438 16.691406 C 36.398438 15.445312 34.238281 14.453125 32.835938 14.84375 Z M 15.445312 6.777344 C 15.773438 7.082031 16.3125 7.3125 16.738281 7.574219 C 17.507812 8.046875 17.417969 7.824219 18.148438 7.402344 C 18.882812 6.980469 25.851562 3.09375 26.207031 2.59375 C 25.820312 2.449219 25.261719 2.109375 24.875 1.878906 C 24.175781 1.449219 24.070312 1.6875 23.441406 2.0625 C 22.160156 2.832031 16.054688 6.25 15.4375 6.777344 Z M 15.445312 6.777344 " fill-opacity="1" fill-rule="evenodd"/></svg>