<svg xmlns="http://www.w3.org/2000/svg" xmlns:xlink="http://www.w3.org/1999/xlink" width="500" zoomAndPan="magnify" viewBox="0 0 375 374.999991" height="500" preserveAspectRatio="xMidYMid meet" version="1.0"><defs><clipPath id="37ecc57052"><path d="M 43.441406 35 L 195 35 L 195 291 L 43.441406 291 Z M 43.441406 35 " clip-rule="nonzero"/></clipPath><clipPath id="20ebc22677"><path d="M 180 84 L 331.441406 84 L 331.441406 340 L 180 340 Z M 180 84 " clip-rule="nonzero"/></clipPath></defs><rect x="-37.5" width="450" fill="#ffffff" y="-37.499999" height="449.999989" fill-opacity="1"/><rect x="-37.5" width="450" fill="#ffffff" y="-37.499999" height="449.999989" fill-opacity="1"/><g clip-path="url(#37ecc57052)"><path fill="#1093dc" d="M 183.074219 94.015625 L 97.933594 44.566406 C 70.523438 28.644531 44.125 29.488281 44.015625 71.617188 L 43.808594 152.539062 L 43.753906 173.046875 L 43.546875 253.96875 C 43.4375 296.097656 69.828125 297.074219 97.324219 281.292969 L 182.71875 232.285156 C 193.449219 226.125 197.1875 212.308594 191.027344 201.582031 C 184.871094 190.851562 171.054688 187.113281 160.328125 193.269531 L 118.285156 217.398438 C 115.945312 218.222656 113.429688 218.667969 110.808594 218.660156 C 99.292969 218.628906 89.835938 209.882812 88.671875 198.683594 L 88.738281 173.160156 L 88.792969 152.652344 L 88.855469 127.132812 C 90.078125 115.9375 99.582031 107.242188 111.09375 107.269531 C 113.714844 107.277344 116.230469 107.734375 118.566406 108.570312 L 160.480469 132.914062 C 171.179688 139.128906 185.015625 135.464844 191.226562 124.761719 C 197.441406 114.0625 193.769531 100.230469 183.074219 94.015625 " fill-opacity="1" fill-rule="evenodd"/></g><g clip-path="url(#20ebc22677)"><path fill="#1093dc" d="M 192.273438 142.703125 L 277.667969 93.695312 C 305.160156 77.914062 331.550781 78.890625 331.441406 121.023438 L 331.234375 201.941406 L 331.179688 222.449219 L 330.972656 303.371094 C 330.863281 345.5 304.464844 346.34375 277.054688 330.421875 L 191.914062 280.972656 C 181.214844 274.757812 177.546875 260.925781 183.761719 250.226562 C 189.972656 239.527344 203.808594 235.859375 214.503906 242.074219 L 256.421875 266.417969 C 258.757812 267.253906 261.273438 267.710938 263.894531 267.71875 C 275.410156 267.746094 284.910156 259.050781 286.132812 247.855469 L 286.195312 222.335938 L 286.25 201.828125 L 286.316406 176.304688 C 285.152344 165.105469 275.695312 156.359375 264.179688 156.328125 C 261.558594 156.324219 259.039062 156.765625 256.703125 157.59375 L 214.664062 181.722656 C 203.933594 187.875 190.113281 184.140625 183.957031 173.410156 C 177.800781 162.679688 181.542969 148.863281 192.273438 142.703125 " fill-opacity="1" fill-rule="evenodd"/></g></svg>