<svg xmlns="http://www.w3.org/2000/svg" xmlns:xlink="http://www.w3.org/1999/xlink" width="500" zoomAndPan="magnify" viewBox="0 0 375 374.999991" height="500" preserveAspectRatio="xMidYMid meet" version="1.0"><metadata><ContainsAiGeneratedContent>Yes</ContainsAiGeneratedContent></metadata><defs><clipPath id="2f078aaf8d"><path d="M 17.46875 7 L 196 7 L 196 310 L 17.46875 310 Z M 17.46875 7 " clip-rule="nonzero"/></clipPath><clipPath id="3802c9ab63"><path d="M 179 65 L 357.21875 65 L 357.21875 368 L 179 368 Z M 179 65 " clip-rule="nonzero"/></clipPath></defs><g clip-path="url(#2f078aaf8d)"><path fill="#ffffff" d="M 182.28125 77.167969 L 81.785156 18.800781 C 49.433594 0.0078125 18.277344 1.003906 18.148438 50.730469 L 17.902344 146.242188 L 17.839844 170.445312 L 17.59375 265.957031 C 17.464844 315.6875 48.613281 316.839844 81.066406 298.214844 L 181.859375 240.367188 C 194.523438 233.097656 198.9375 216.789062 191.667969 204.125 C 184.402344 191.460938 168.09375 187.050781 155.429688 194.316406 L 105.808594 222.792969 C 103.046875 223.769531 100.074219 224.292969 96.980469 224.285156 C 83.390625 224.25 72.230469 213.925781 70.855469 200.707031 L 70.933594 170.582031 L 70.996094 146.375 L 71.074219 116.253906 C 72.515625 103.039062 83.730469 92.777344 97.320312 92.8125 C 100.414062 92.816406 103.382812 93.359375 106.136719 94.34375 L 155.613281 123.078125 C 168.238281 130.414062 184.570312 126.085938 191.902344 113.457031 C 199.238281 100.828125 194.90625 84.5 182.28125 77.167969 " fill-opacity="1" fill-rule="evenodd"/></g><g clip-path="url(#3802c9ab63)"><path fill="#ffffff" d="M 193.136719 134.632812 L 293.929688 76.785156 C 326.378906 58.160156 357.527344 59.3125 357.398438 109.042969 L 357.152344 204.554688 L 357.09375 228.757812 L 356.84375 324.269531 C 356.714844 373.996094 325.558594 374.992188 293.207031 356.199219 L 192.714844 297.832031 C 180.085938 290.5 175.757812 274.171875 183.089844 261.546875 C 190.421875 248.917969 206.753906 244.585938 219.378906 251.921875 L 268.855469 280.65625 C 271.609375 281.640625 274.578125 282.179688 277.671875 282.1875 C 291.261719 282.222656 302.476562 271.960938 303.917969 258.746094 L 303.996094 228.625 L 304.058594 204.417969 L 304.136719 174.292969 C 302.761719 161.074219 291.601562 150.75 278.007812 150.714844 C 274.917969 150.707031 271.941406 151.230469 269.183594 152.207031 L 219.566406 180.683594 C 206.902344 187.949219 190.589844 183.542969 183.324219 170.875 C 176.054688 158.210938 180.46875 141.902344 193.136719 134.632812 " fill-opacity="1" fill-rule="evenodd"/></g></svg>